PathFileType	4	(X/Y/Z)	./resultDataOpenSim/trcMotMarkerGrf/sub06/qtm-02-01.trc
DataRate	CameraRate	NumFrames	NumMarkers	Units	OrigDataRate	OrigDataStartFrame	OrigNumFrames
250.000000	250.000000	8	24	m	250.000000	128	509
Frame#	Time	L.Toe.Tip			R.Toe.Tip			L.Ankle.Lat			R.Ankle.Lat			L.Ankle.Med			R.Ankle.Med			L.Heel			R.Heel			L.Knee.Lat			R.Knee.Lat			L.Knee.Med			R.Knee.Med			L.Thigh.Upper			R.Thigh.Upper			L.ASIS			R.ASIS			V.Sacral			L.Acromium			R.Acromium			C7			L.Elbow			R.Elbow			L.Wrist.Lat			R.Wrist.Lat
		X1	Y1	Z1	X2	Y2	Z2	X3	Y3	Z3	X4	Y4	Z4	X5	Y5	Z5	X6	Y6	Z6	X7	Y7	Z7	X8	Y8	Z8	X9	Y9	Z9	X10	Y10	Z10	X11	Y11	Z11	X12	Y12	Z12	X13	Y13	Z13	X14	Y14	Z14	X15	Y15	Z15	X16	Y16	Z16	X17	Y17	Z17	X18	Y18	Z18	X19	Y19	Z19	X20	Y20	Z20	X21	Y21	Z21	X22	Y22	Z22	X23	Y23	Z23	X24	Y24	Z24

128	0.508	-0.11644618	0.10116973	-0.073292758	-0.7175675	0.036090453	0.095438477	-0.24444596	0.094096671	-0.092595262	-0.85074438	0.068943062	0.1131394	-0.24570279	0.11189634	-0.008302918	-0.82684118	0.084651334	0.025842905	-0.29992293	0.041005058	-0.042430562	-0.9067853	0.048215635	0.050121498	-0.33416228	0.45652548	-0.097448543	-0.68895642	0.42412873	0.14353921	-0.34992089	0.44609166	0.024679828	-0.71934522	0.42527754	0.011931952	-0.53261706	0.79742099	-0.14555603	-0.59156444	0.77543414	0.20586388	-0.47317719	0.84047403	-0.090151437	-0.48651195	0.82698242	0.15584959	-0.66601859	0.90558694	0.035120095	-0.56065191	1.3172233	-0.15583209	-0.54056603	1.3100982	0.20231178	-0.62846336	1.3453506	0.026609406	-0.66656578	1.0217692	-0.20443749	-0.5413625	0.99862505	0.30758452	-0.56587751	0.80335261	-0.25722531	-0.3006479	0.92356343	0.28123611
129	0.512	-0.10177866	0.10407425	-0.072848732	-0.71747209	0.036060169	0.095382135	-0.22971611	0.094672627	-0.09265991	-0.85031174	0.069420861	0.11305289	-0.23187238	0.11217987	-0.008403267	-0.82627167	0.084949264	0.025719851	-0.28425326	0.040197557	-0.043312135	-0.90656152	0.04898923	0.050025544	-0.32645987	0.45433306	-0.096611716	-0.6847053	0.42296136	0.14336049	-0.34274626	0.44333268	0.025604091	-0.71484663	0.42442198	0.011684941	-0.52477596	0.79471331	-0.14592607	-0.58477479	0.77344387	0.20495586	-0.46566795	0.83803207	-0.090421858	-0.47942508	0.82471544	0.15569939	-0.65833114	0.90313172	0.036044486	-0.55437187	1.3147381	-0.15607423	-0.53426175	1.3076499	0.20231129	-0.62204528	1.3431461	0.026543877	-0.66117706	1.0197737	-0.20437353	-0.53303448	0.99621126	0.30781528	-0.56299916	0.80082343	-0.25873796	-0.29179445	0.92394223	0.28045821
130	0.516	-0.087774885	0.10690431	-0.072342644	-0.71737506	0.036036403	0.095322931	-0.21559981	0.095184928	-0.092606038	-0.84987302	0.069936123	0.11293904	-0.21854995	0.11233599	-0.0083870774	-0.82563654	0.085255573	0.025579996	-0.26933699	0.039410639	-0.043782217	-0.90632055	0.049860479	0.049910933	-0.31868612	0.45216956	-0.09586235	-0.68027733	0.42177205	0.14316356	-0.33560116	0.44058284	0.026490982	-0.71012826	0.42352455	0.011419863	-0.51689334	0.79192524	-0.146273	-0.57808954	0.77150845	0.20404406	-0.45807598	0.83554875	-0.090664824	-0.47250315	0.82237111	0.15566759	-0.65094743	0.90075773	0.036446616	-0.54808214	1.3122384	-0.15633541	-0.5278548	1.3052016	0.20232858	-0.6155835	1.3409516	0.026463163	-0.65571031	1.0177396	-0.20434048	-0.52465673	0.99375925	0.30797912	-0.55994219	0.79834106	-0.26020561	-0.28294031	0.92422566	0.27963289
131	0.52	-0.07445138	0.10951933	-0.071787566	-0.71727466	0.036017606	0.095263877	-0.20211432	0.095574921	-0.092435253	-0.84941637	0.07050941	0.11281149	-0.20569524	0.1123422	-0.0082712962	-0.82491515	0.08557935	0.025420465	-0.25510836	0.038587465	-0.043992009	-0.90606769	0.050828846	0.04979155	-0.3108202	0.45004519	-0.095197344	-0.67568587	0.4205563	0.14294115	-0.32849561	0.43785183	0.027315569	-0.70520771	0.42256867	0.011152553	-0.50894575	0.78908482	-0.1465716	-0.57161457	0.76963514	0.2031427	-0.45041267	0.83302581	-0.09088811	-0.46587245	0.81983165	0.15585378	-0.64385457	0.89838466	0.035586687	-0.5417687	1.3097276	-0.15661297	-0.52132075	1.3027635	0.20235442	-0.60908786	1.3387652	0.026363202	-0.65016893	1.0156911	-0.20433681	-0.516269	0.99128683	0.3081082	-0.55663182	0.79592087	-0.2615982	-0.27407526	0.92442151	0.27872683
132	0.524	-0.061803435	0.11178733	-0.071203554	-0.71716781	0.035997352	0.095204296	-0.18925922	0.095787832	-0.092152044	-0.84892321	0.07116451	0.11268039	-0.19332377	0.11218868	-0.0080562126	-0.82410545	0.085944756	0.025254474	-0.2415262	0.037700431	-0.043978193	-0.9057883	0.051897384	0.049662316	-0.30283931	0.44796142	-0.094607126	-0.67095258	0.41929906	0.1426857	-0.32143016	0.4351468	0.028054499	-0.70009632	0.42154425	0.01087319	-0.50094021	0.78622622	-0.14680398	-0.56540863	0.76781921	0.20226546	-0.44268578	0.83046465	-0.0910916	-0.45944095	0.81713694	0.156255	-0.63676707	0.8959587	0.033524634	-0.53541671	1.307207	-0.15690467	-0.51469335	1.3003352	0.20237241	-0.60255605	1.3365798	0.026243716	-0.64455082	1.013631	-0.20435879	-0.5078936	0.98881444	0.30820136	-0.55307711	0.79354817	-0.26291017	-0.26525114	0.92452736	0.27777041
133	0.528	-0.049810612	0.11360228	-0.070604861	-0.71705367	0.035972389	0.095143591	-0.17702846	0.095778906	-0.091768701	-0.84838011	0.071911154	0.11254904	-0.18147821	0.11187839	-0.0077137001	-0.82326239	0.08637808	0.025111137	-0.22861333	0.036743095	-0.043762118	-0.9054606	0.05307067	0.049512413	-0.29473868	0.4459364	-0.094075201	-0.66610068	0.41799524	0.14239673	-0.31438178	0.43248077	0.028698018	-0.69479203	0.420445	0.010559629	-0.49291509	0.78338609	-0.14697022	-0.55945832	0.76604263	0.20142538	-0.4349025	0.82786633	-0.091264763	-0.45305057	0.81448319	0.15672446	-0.62947185	0.89349185	0.030769447	-0.52901771	1.3046834	-0.1572099	-0.50800701	1.2979137	0.20236527	-0.59598121	1.3343959	0.026104837	-0.63884965	1.0115562	-0.20440312	-0.49952737	0.98635269	0.30824248	-0.54938403	0.79117616	-0.26416082	-0.2565177	0.92453557	0.27680441
134	0.532	-0.038446875	0.11488772	-0.069989596	-0.71693358	0.035946568	0.095085066	-0.16541804	0.09551654	-0.091306228	-0.84777878	0.072745345	0.11242106	-0.17019677	0.11140873	-0.0072411707	-0.82246379	0.08688839	0.02500966	-0.2164113	0.035703527	-0.043377532	-0.90507088	0.05436165	0.049334423	-0.28655338	0.44400488	-0.093579163	-0.66114727	0.41665648	0.14208693	-0.3073037	0.42988258	0.029251454	-0.68929467	0.41926252	0.010207416	-0.48489544	0.78059911	-0.1470858	-0.55370036	0.76427773	0.20063556	-0.42706668	0.82523615	-0.091396229	-0.44663568	0.81201791	0.15713882	-0.62196197	0.89103997	0.027834317	-0.52257365	1.3021727	-0.15753179	-0.50127591	1.2954944	0.20232031	-0.58936011	1.3322208	0.025944765	-0.63306243	1.0094679	-0.20446563	-0.49117816	0.98390352	0.30823294	-0.54569503	0.7887619	-0.26538682	-0.24789023	0.92444005	0.27585244
135	0.536	-0.027684741	0.11559674	-0.06934547	-0.71680973	0.035925706	0.09503428	-0.15442231	0.094981021	-0.090785757	-0.84712193	0.073663986	0.11230606	-0.15950376	0.11076036	-0.0066817319	-0.82171022	0.08746447	0.024935845	-0.20493326	0.03455553	-0.042851778	-0.90463889	0.055798836	0.049155308	-0.27833631	0.44219168	-0.093103922	-0.65609801	0.41529915	0.14177783	-0.30014622	0.42739181	0.029725981	-0.68361653	0.41799255	0.0098312624	-0.47683582	0.77789717	-0.14717886	-0.54805364	0.76249126	0.19991022	-0.41916148	0.82258824	-0.091482119	-0.44024973	0.80972285	0.15748628	-0.61436303	0.88867321	0.025119214	-0.51609454	1.2996921	-0.15787379	-0.49451219	1.29308	0.20223521	-0.58269904	1.330059	0.025759546	-0.62719399	1.0073716	-0.20454047	-0.48286676	0.98146628	0.30818561	-0.54211587	0.78629176	-0.26662063	-0.23936176	0.92423981	0.27492076
